<svg width="27" height="27" viewBox="0 0 27 27" fill="none" xmlns="http://www.w3.org/2000/svg">
<path d="M13.3333 0C10.6963 0 8.11839 0.781986 5.92574 2.24707C3.73308 3.71216 2.02411 5.79454 1.01495 8.23089C0.00577712 10.6672 -0.258267 13.3481 0.256202 15.9345C0.770672 18.521 2.04055 20.8967 3.90525 22.7614C5.76995 24.6261 8.14572 25.896 10.7321 26.4105C13.3185 26.9249 15.9994 26.6609 18.4358 25.6517C20.8721 24.6426 22.9545 22.9336 24.4196 20.7409C25.8847 18.5483 26.6667 15.9704 26.6667 13.3333C26.6628 9.79831 25.2568 6.40917 22.7571 3.90953C20.2575 1.40989 16.8684 0.00388213 13.3333 0ZM13.3333 24C11.2237 24 9.16138 23.3744 7.40726 22.2023C5.65313 21.0303 4.28596 19.3644 3.47862 17.4153C2.67129 15.4662 2.46005 13.3215 2.87163 11.2524C3.28321 9.18324 4.29911 7.28262 5.79087 5.79086C7.28263 4.2991 9.18325 3.2832 11.2524 2.87162C13.3215 2.46005 15.4662 2.67128 17.4153 3.47862C19.3644 4.28595 21.0303 5.65313 22.2023 7.40725C23.3744 9.16138 24 11.2237 24 13.3333C23.9968 16.1613 22.872 18.8726 20.8723 20.8723C18.8726 22.872 16.1613 23.9968 13.3333 24Z" fill="#242424"/>
<path d="M14.6667 5.33301H12V13.885L17.724 19.609L19.6093 17.7237L14.6667 12.781V5.33301Z" fill="black"/>
</svg>
