<svg width="27" height="27" viewBox="0 0 27 27" fill="none" xmlns="http://www.w3.org/2000/svg">
<path d="M13.5 0C6.056 0 0 6.056 0 13.5C0 20.944 6.056 27 13.5 27C20.944 27 27 20.944 27 13.5C27 6.056 20.944 0 13.5 0ZM13.5 24C7.71067 24 3 19.2893 3 13.5C3 7.71067 7.71067 3 13.5 3C19.2893 3 24 7.71067 24 13.5C24 19.2893 19.2893 24 13.5 24Z" fill="#242424"/>
<path d="M19.1064 8.44043L12.1664 15.3791L9.22645 12.4404L7.10645 14.5604L12.1664 19.6218L21.2264 10.5604L19.1064 8.44043Z" fill="black"/>
</svg>
