<svg width="27" height="27" viewBox="0 0 27 27" fill="none" xmlns="http://www.w3.org/2000/svg">
<path d="M13.5 0C6.056 0 0 6.056 0 13.5C0 20.944 6.056 27 13.5 27C20.944 27 27 20.944 27 13.5C27 6.056 20.944 0 13.5 0ZM13.5 24C7.70933 24 3 19.2893 3 13.5C3 7.71067 7.70933 3 13.5 3C19.2907 3 24 7.71067 24 13.5C24 19.2893 19.2907 24 13.5 24Z" fill="#242424"/>
<path d="M17.2709 7.84277L13.5002 11.6148L9.72957 7.84277L7.84424 9.72811L11.6149 13.5001L7.84424 17.2721L9.72957 19.1574L13.5002 15.3854L17.2709 19.1574L19.1562 17.2721L15.3856 13.5001L19.1562 9.72811L17.2709 7.84277Z" fill="black"/>
</svg>
